<svg xmlns="http://www.w3.org/2000/svg" width="193.706" height="79.657" viewBox="-72 -72 145.279 59.743"><defs><style>@import url(/tikz/fonts.css);</style></defs><g stroke="#000" stroke-miterlimit="10" stroke-width=".4"><g stroke="none"><text x="19.904" y="-84.853" stroke="none" font-family="cmmi10" font-size="10" transform="translate(-76.41 23.076)">Z</text><g stroke="none"><text x="19.904" y="-43.034" font-family="cmr10" font-size="10" transform="translate(-87.869 23.076)">Ker</text><text x="36.043" y="-43.034" font-family="cmr10" font-size="10" transform="translate(-87.869 23.076)">(</text><text x="39.932" y="-43.034" font-family="cmmi10" font-size="10" transform="translate(-87.869 23.076)">&apos;</text><text x="46.474" y="-43.034" font-family="cmr10" font-size="10" transform="translate(-87.869 23.076)">)</text></g><text x="83.676" y="-43.034" stroke="none" font-family="cmmi10" font-size="10" transform="translate(-76.57 23.076)">G</text><text x="136.781" y="-43.034" stroke="none" font-family="cmmi10" font-size="10" transform="translate(-77.202 23.076)">H</text></g><g stroke-dasharray="2.79985,1.59991"><path fill="none" d="M-52.735-57.917v26.2"/><path fill="none" stroke-dasharray="none" stroke-linecap="round" stroke-linejoin="round" d="M-50.335-33.597c-1.44.38-2.12 1.227-2.4 2.08-.28-.853-.96-1.7-2.4-2.08"/><g stroke="none"><text x=".37" y="-43.034" font-family="cmsy7" font-size="7" transform="translate(-68.035 .847)">9</text><text x="4.897" y="-43.034" font-family="cmr7" font-size="7" transform="translate(-68.035 .847)">!</text><text x="8.527" y="-43.034" font-family="cmmi7" font-size="7" transform="translate(-68.035 .847)">k</text></g></g><path fill="none" d="M-44.459-58.85 2.265-28.207"/><path fill="none" stroke-linecap="round" stroke-linejoin="round" stroke-width=".39997600000000005" d="M2.01-31.243c-.473 1.412-.137 2.445.422 3.147-.867-.234-1.947-.13-3.055.866"/><text x=".37" y="-43.034" stroke="none" font-family="cmmi7" font-size="7" transform="translate(-18.947 -2.737)">z</text><path fill="none" d="M-31.56-22.457H2.2"/><path fill="none" stroke-linecap="round" d="M-31.56-24.417c-.685 0-1.24.438-1.24.98 0 .54.555.98 1.24.98"/><path fill="none" stroke-linecap="round" stroke-linejoin="round" d="M.32-24.857c.38 1.44 1.226 2.12 2.08 2.4-.854.28-1.7.96-2.08 2.4"/><text x=".37" y="-43.034" stroke="none" font-family="cmmi7" font-size="7" transform="translate(-17.05 25.943)">¶</text><path fill="none" d="M19.473-24.869h35.2"/><path fill="none" stroke-linecap="round" stroke-linejoin="round" d="M52.793-27.268c.38 1.44 1.227 2.12 2.08 2.4-.853.28-1.7.96-2.08 2.4"/><text x=".37" y="-43.034" stroke="none" font-family="cmmi7" font-size="7" transform="translate(34.274 14.451)">&apos;</text><path fill="none" d="M19.473-20.046h35.2"/><path fill="none" stroke-linecap="round" stroke-linejoin="round" d="M52.793-22.446c.38 1.44 1.227 2.12 2.08 2.4-.853.28-1.7.96-2.08 2.4"/><text x=".37" y="-43.034" stroke="none" font-family="cmmi7" font-size="7" transform="translate(35.237 28.354)">²</text></g></svg>