<svg xmlns="http://www.w3.org/2000/svg" width="283.562" height="82.185" viewBox="-72 -72 212.671 61.639"><defs><style>@import url(/tikz/fonts.css);</style></defs><g stroke="#000" stroke-miterlimit="10" stroke-width=".4"><g stroke="none"><g stroke="none"><text x="140.171" y="-85.77" font-family="cmsy10" font-size="10" transform="translate(-120.62 24.66)">f</text><text x="145.002" y="-85.77" font-family="cmmi10" font-size="10" transform="translate(-120.62 24.66)">~</text><text x="145.171" y="-85.77" font-family="cmmi10" font-size="10" transform="translate(-120.62 24.66)">z</text><text x="152.483" y="-85.77" font-family="cmsy10" font-size="10" transform="translate(-120.62 24.66)">¢</text><text x="157.483" y="-85.77" font-family="cmmi10" font-size="10" transform="translate(-120.62 24.66)">Â</text><text x="163.74" y="-85.77" font-family="cmsy10" font-size="10" transform="translate(-120.62 24.66)">g</text></g><g stroke="none"><text x="52.819" y="-41.451" font-family="cmsy10" font-size="10" transform="translate(-120.783 24.66)">f</text><text x="57.685" y="-41.451" font-family="cmmi10" font-size="10" transform="translate(-120.783 24.66)">~</text><text x="57.819" y="-41.451" font-family="cmmi10" font-size="10" transform="translate(-120.783 24.66)">x</text><text x="65.756" y="-41.451" font-family="cmsy10" font-size="10" transform="translate(-120.783 24.66)">¢</text><text x="70.756" y="-41.451" font-family="cmmi10" font-size="10" transform="translate(-120.783 24.66)">Á</text><text x="76.715" y="-41.451" font-family="cmsy10" font-size="10" transform="translate(-120.783 24.66)">g</text></g><g stroke="none"><text x="140.171" y="-41.451" font-family="cmsy10" font-size="10" transform="translate(-134.628 24.66)">f</text><text x="145.037" y="-41.451" font-family="cmmi10" font-size="10" transform="translate(-134.628 24.66)">~</text><text x="145.171" y="-41.451" font-family="cmmi10" font-size="10" transform="translate(-134.628 24.66)">x</text><text x="150.886" y="-41.451" font-family="cmmi10" font-size="10" transform="translate(-134.628 24.66)">;</text><text x="155.248" y="-41.451" font-family="cmmi10" font-size="10" transform="translate(-134.628 24.66)">~</text><text x="155.33" y="-41.451" font-family="cmmi10" font-size="10" transform="translate(-134.628 24.66)">y</text><text x="162.814" y="-41.451" font-family="cmsy10" font-size="10" transform="translate(-134.628 24.66)">¢</text><text x="167.814" y="-41.451" font-family="cmmi10" font-size="10" transform="translate(-134.628 24.66)">Á</text><text x="175.995" y="-41.451" font-family="cmsy10" font-size="10" transform="translate(-134.628 24.66)">^</text><text x="184.884" y="-41.451" font-family="cmmi10" font-size="10" transform="translate(-134.628 24.66)">Ã</text><text x="191.756" y="-41.451" font-family="cmsy10" font-size="10" transform="translate(-134.628 24.66)">g</text></g><g stroke="none"><text x="227.753" y="-41.451" font-family="cmsy10" font-size="10" transform="translate(-121.014 24.66)">f</text><text x="232.67" y="-41.451" font-family="cmmi10" font-size="10" transform="translate(-121.014 24.66)">~</text><text x="232.753" y="-41.451" font-family="cmmi10" font-size="10" transform="translate(-121.014 24.66)">y</text><text x="240.237" y="-41.451" font-family="cmsy10" font-size="10" transform="translate(-121.014 24.66)">¢</text><text x="245.237" y="-41.451" font-family="cmmi10" font-size="10" transform="translate(-121.014 24.66)">Ã</text><text x="252.109" y="-41.451" font-family="cmsy10" font-size="10" transform="translate(-121.014 24.66)">g</text></g></g><path fill="none" d="M15.045-64.627c-28.346.075-48.684 11.89-62.592 36.13"/><path fill="none" stroke-linecap="round" stroke-linejoin="round" stroke-width=".399984" d="M-44.53-28.934c-1.438-.387-2.45.01-3.117.61.182-.88.014-1.952-1.046-2.998"/><text x="34.066" y="-41.451" stroke="none" font-family="cmmi7" font-size="7" transform="translate(-62.133 -16.483)">µ</text><g stroke-dasharray="2.79985,1.59991"><path fill="none" d="M33.835-54.75v26.2"/><path fill="none" stroke-dasharray="none" stroke-linecap="round" stroke-linejoin="round" d="M36.235-30.43c-1.44.38-2.12 1.226-2.4 2.08-.28-.854-.96-1.7-2.4-2.08"/><g stroke="none"><text x="34.066" y="-41.451" font-family="cmsy7" font-size="7" transform="translate(2.122 1.75)">9</text><text x="38.593" y="-41.451" font-family="cmr7" font-size="7" transform="translate(2.122 1.75)">!</text><text x="42.223" y="-41.451" font-family="cmsy7" font-size="7" transform="translate(2.122 1.75)">h</text><text x="45.459" y="-41.451" font-family="cmmi7" font-size="7" transform="translate(2.122 1.75)">µ</text><text x="49.483" y="-41.451" font-family="cmmi7" font-size="7" transform="translate(2.122 1.75)">;°</text><text x="56.49" y="-41.451" font-family="cmsy7" font-size="7" transform="translate(2.122 1.75)">i</text></g></g><path fill="none" d="M52.625-64.646c28.444.04 48.82 11.843 62.808 36.149"/><path fill="none" stroke-linecap="round" stroke-linejoin="round" stroke-width=".399992" d="M116.575-31.324c-1.058 1.048-1.225 2.121-1.042 3-.668-.6-1.68-.994-3.117-.605"/><text x="34.066" y="-41.451" stroke="none" font-family="cmmi7" font-size="7" transform="translate(48.426 -8.811)">°</text><path fill="none" d="M1.037-19.29h-35.2"/><path fill="none" stroke-linecap="round" stroke-linejoin="round" d="M-32.283-16.891c-.38-1.44-1.227-2.12-2.08-2.4.853-.28 1.7-.96 2.08-2.4"/><g stroke="none"><text x="34.066" y="-41.451" font-family="cmmi7" font-size="7" transform="translate(-55.118 18.807)">¼</text><text x="38.742" y="-40.451" font-family="cmr5" font-size="5" transform="translate(-55.118 18.807)">1</text></g><path fill="none" d="M66.633-19.29h35.2"/><path fill="none" stroke-linecap="round" stroke-linejoin="round" d="M99.954-21.69c.38 1.44 1.226 2.12 2.08 2.4-.854.28-1.7.96-2.08 2.399"/><g stroke="none"><text x="34.066" y="-41.451" font-family="cmmi7" font-size="7" transform="translate(46.078 18.807)">¼</text><text x="38.742" y="-40.451" font-family="cmr5" font-size="5" transform="translate(46.078 18.807)">2</text></g></g></svg>