<svg xmlns="http://www.w3.org/2000/svg" width="161.937" height="77.387" viewBox="-72 -72 121.453 58.04"><defs><style>@import url(/tikz/fonts.css);</style></defs><g stroke="#000" stroke-miterlimit="10" stroke-width=".4"><g stroke="none"><text x="-3.403" y="-83.035" stroke="none" font-family="cmr10" font-size="10" transform="translate(-63.226 23.993)">1</text><text x="48.975" y="-83.035" stroke="none" font-family="cmmi10" font-size="10" transform="translate(-64.476 23.993)">A</text><text x="101.56" y="-83.035" stroke="none" font-family="cmmi10" font-size="10" transform="translate(-64.77 23.993)">B</text><text x="-3.403" y="-41.883" stroke="none" font-family="cmmi10" font-size="10" transform="translate(-64.562 23.993)">R</text><text x="48.975" y="-41.883" stroke="none" font-family="cmmi10" font-size="10" transform="translate(-64.658 23.993)">C</text></g><path fill="none" d="M-57.124-61.542h36.717"/><path fill="none" stroke-linecap="round" stroke-linejoin="round" d="M-22.287-63.942c.38 1.44 1.226 2.12 2.08 2.4-.854.28-1.7.96-2.08 2.4"/><text x="-11.544" y="-41.883" stroke="none" font-family="cmmi7" font-size="7" transform="translate(-28.809 -22.012)">c</text><path fill="none" d="M-3.496-61.542h35.381"/><path fill="none" stroke-linecap="round" stroke-linejoin="round" d="M30.005-63.942c.38 1.44 1.227 2.12 2.08 2.4-.853.28-1.7.96-2.08 2.4"/><text x="-11.544" y="-41.883" stroke="none" font-family="cmmi7" font-size="7" transform="translate(23.596 -23.374)">f</text><path fill="none" d="M-11.752-55.183v26.2"/><path fill="none" stroke-linecap="round" stroke-linejoin="round" d="M-9.352-30.862c-1.44.38-2.12 1.226-2.4 2.08-.28-.854-.96-1.7-2.4-2.08"/><text x="-11.544" y="-41.883" stroke="none" font-family="cmmi7" font-size="7" transform="translate(2.144 2.43)">h</text><path fill="none" d="M32.711-55.183-3-27.237"/><path fill="none" stroke-linecap="round" stroke-linejoin="round" stroke-width=".399988" d="M-.04-26.506c-1.187-.9-2.273-.913-3.118-.608.5-.746.747-1.803.16-3.171"/><text x="-11.544" y="-41.883" stroke="none" font-family="cmmi7" font-size="7" transform="translate(28.594 6.163)">g</text><g stroke-dasharray="2.79985,1.59991"><path fill="none" d="M-64.13-30.022v-24.76"/><path fill="none" stroke-dasharray="none" stroke-linecap="round" d="M-66.09-30.022c0 .684.44 1.24.98 1.24.542 0 .98-.556.98-1.24"/><path fill="none" stroke-dasharray="none" stroke-linecap="round" stroke-linejoin="round" d="M-66.53-52.903c1.44-.38 2.12-1.226 2.4-2.08.28.854.96 1.7 2.4 2.08"/></g></g></svg>